<svg width="132" height="131" viewBox="0 0 132 131" fill="none" xmlns="http://www.w3.org/2000/svg">
<path d="M12.0319 38.2566C12.3884 38.435 12.6557 38.435 12.923 38.435C13.1904 38.435 13.4577 38.435 13.636 38.2566C13.9033 38.1675 14.0815 37.9891 14.2598 37.8108C14.438 37.6324 14.6162 37.3649 14.7054 37.0973C14.8836 36.8298 14.9727 36.5623 15.0618 36.2948C15.1509 36.0272 15.0618 35.7597 15.0618 35.5814C14.9727 35.403 14.8836 35.2246 14.7945 35.0463C14.7054 34.8679 14.5271 34.7788 14.3489 34.6896C14.0815 34.5112 13.8142 34.5112 13.636 34.5112C13.3686 34.5112 13.1904 34.6004 13.0122 34.7788C12.8339 34.9571 12.5666 35.0463 12.3884 35.3138C12.2101 35.4922 12.0319 35.7597 11.7645 35.9381C11.5863 36.2056 11.319 36.3839 11.1407 36.5623C10.9625 36.7406 10.6952 36.919 10.4278 37.0082C10.1605 37.0973 9.89311 37.1865 9.62577 37.1865C9.35842 37.1865 9.00196 37.0973 8.73461 36.919C8.46726 36.8298 8.28903 36.6515 8.1108 36.3839C7.93257 36.2056 7.84345 35.9381 7.75434 35.6705C7.66522 35.403 7.66522 35.0463 7.75434 34.6896C7.84345 34.3329 7.93257 33.9762 8.1108 33.6195C8.28903 33.2628 8.55638 32.9061 8.82372 32.7277C9.09107 32.4602 9.35842 32.371 9.62577 32.2818C9.89311 32.1927 10.1605 32.1926 10.5169 32.1926C10.7843 32.1926 11.1407 32.371 11.4081 32.4602L11.0516 33.0844C10.7843 32.9061 10.5169 32.9061 10.3387 32.8169C10.0713 32.8169 9.89311 32.8169 9.71488 32.9061C9.53665 32.9952 9.35842 33.0844 9.18019 33.2628C9.00196 33.4411 8.91284 33.6195 8.73461 33.7978C8.55638 34.1545 8.46726 34.4221 8.37815 34.6896C8.37815 34.9571 8.37815 35.2246 8.46726 35.403C8.55638 35.5814 8.64549 35.7597 8.82372 35.9381C9.00196 36.1164 9.18019 36.2056 9.35842 36.2948C9.62577 36.3839 9.804 36.3839 10.0713 36.2948C10.2496 36.2056 10.5169 36.1164 10.6952 35.9381C10.8734 35.7597 11.0516 35.5814 11.2298 35.403C11.4081 35.2246 11.5863 34.9571 11.7645 34.7788C11.9428 34.6004 12.2101 34.3329 12.3884 34.1545C12.5666 33.9762 12.8339 33.7978 13.1013 33.7086C13.3686 33.6195 13.636 33.5303 13.9033 33.5303C14.1707 33.5303 14.438 33.6195 14.7945 33.7978C15.4183 34.1545 15.7747 34.6004 15.8639 35.2246C15.953 35.8489 15.7747 36.5623 15.4183 37.3649C15.2401 37.7216 14.9727 37.9891 14.7054 38.2566C14.438 38.5242 14.1707 38.7025 13.9033 38.7917C13.4577 39.2376 13.1013 39.2376 12.7448 39.2376C12.3884 39.2376 12.0319 39.0592 11.6754 38.8809L12.0319 38.2566Z" fill="white"/>
<path d="M17.1131 33.9762L10.875 29.5174L13.8158 25.3261L14.3505 25.6828L11.7662 29.2498L13.994 30.855L16.3111 27.6447L16.8457 28.0014L14.5287 31.2117L17.024 32.9952L19.6083 29.339L20.143 29.6957L17.1131 33.9762Z" fill="white"/>
<path d="M20.9456 28.8039L15.2422 23.6317L18.6286 19.7971L19.0742 20.243L16.1333 23.5425L18.183 25.4152L20.8565 22.4724L21.3021 22.9183L18.6286 25.8611L20.9456 27.9122L23.9755 24.5235L24.4211 24.9694L20.9456 28.8039Z" fill="white"/>
<path d="M27.5356 21.9374L22.8125 15.8734L23.7037 15.16L29.8526 18.9946L27.6247 12.0388L28.5159 11.3254L33.239 17.3894L32.7043 17.8353L28.4268 12.4847L30.6547 19.4404L30.12 19.8863L23.8819 15.9626L28.0703 21.4023L27.5356 21.9374Z" fill="white"/>
<path d="M32.4375 13.4656C32.1701 12.9306 31.9919 12.4847 31.9028 11.9496C31.8137 11.4146 31.8137 10.9687 31.9028 10.5228C31.9919 10.0769 32.1701 9.63104 32.4375 9.18516C32.7048 8.73928 33.1504 8.47175 33.596 8.11504C34.1307 7.84752 34.6654 7.66916 35.1109 7.57999C35.6456 7.57999 36.0912 7.57999 36.5368 7.75834C36.9824 7.93669 37.4279 8.20422 37.7844 8.56093C38.1409 8.91763 38.4973 9.36351 38.7647 9.80939C39.032 10.2553 39.2103 10.7903 39.2994 11.3254C39.3885 11.8604 39.3885 12.3063 39.2994 12.7522C39.2103 13.1981 39.032 13.644 38.7647 14.0899C38.4973 14.5357 38.0518 14.8033 37.5171 15.16C36.9824 15.4275 36.5368 15.6059 36.0021 15.6059C35.4674 15.6059 35.0218 15.6059 34.5762 15.4275C34.1307 15.2491 33.7742 14.9816 33.3286 14.6249C32.883 14.2682 32.7048 13.9115 32.4375 13.4656ZM37.2497 14.6249C37.6953 14.3574 38.0518 14.0899 38.23 13.7332C38.4082 13.3764 38.5865 13.0197 38.6756 12.663C38.7647 12.3063 38.6756 11.8604 38.5864 11.5037C38.4973 11.0579 38.3191 10.7012 38.1409 10.2553C37.8735 9.80939 37.6062 9.36351 37.2497 9.09598C36.8933 8.82845 36.5368 8.56093 36.1803 8.47175C35.8239 8.38257 35.4674 8.2934 35.0218 8.2934C34.6654 8.2934 34.2198 8.47175 33.8633 8.6501C33.4177 8.91763 33.1504 9.18516 32.883 9.54187C32.6157 9.89857 32.5266 10.2553 32.4375 10.612C32.3484 10.9687 32.4375 11.4146 32.5266 11.8604C32.6157 12.3063 32.7939 12.663 32.9722 13.1089C33.1504 13.4656 33.4177 13.8223 33.7742 14.179C34.0416 14.4466 34.398 14.7141 34.7545 14.8924C35.1109 15.0708 35.4674 15.16 35.913 15.0708C36.3586 15.0708 36.8041 14.8924 37.2497 14.6249Z" fill="white"/>
<path d="M41.2623 9.27434L42.5099 12.4847L41.797 12.7522L38.9453 5.61811L41.797 4.45882C42.5991 4.10211 43.2229 4.01293 43.7576 4.19129C44.2922 4.28046 44.6487 4.72635 44.9161 5.35058C45.0943 5.79646 45.1834 6.15317 45.0943 6.50987C45.0052 6.86658 44.8269 7.22328 44.4705 7.57999C44.7378 7.57999 44.9161 7.57999 45.0943 7.66916C45.2725 7.75834 45.4508 7.84752 45.5399 8.02587C45.629 8.20422 45.8072 8.38257 45.8963 8.56093C45.9854 8.73928 46.0746 8.91763 46.1637 9.09598C46.2528 9.36351 46.3419 9.54187 46.431 9.72022C46.5201 9.89857 46.6093 9.98775 46.6984 10.1661C46.7875 10.3445 46.7875 10.3445 46.8766 10.4336C46.9657 10.5228 46.9657 10.5228 47.0548 10.5228V10.612L46.3419 10.9687C46.2528 10.8795 46.0746 10.7012 45.9854 10.5228C45.8963 10.3445 45.7181 10.0769 45.629 9.89857C45.5399 9.63104 45.4508 9.45269 45.3616 9.27434C45.2725 9.09598 45.1834 8.91763 45.0943 8.73928C45.0052 8.56093 44.8269 8.47175 44.7378 8.38257C44.5596 8.2934 44.4705 8.2934 44.2922 8.20422C44.114 8.11504 44.0249 8.20422 43.8467 8.2934C43.6684 8.38257 43.4902 8.38257 43.312 8.47175L41.2623 9.27434ZM43.1337 7.84752C43.4011 7.75834 43.5793 7.66916 43.8467 7.49081C44.0249 7.31246 44.2031 7.22328 44.2922 7.04493C44.3814 6.86658 44.4705 6.68822 44.4705 6.42069C44.4705 6.24234 44.4705 5.97481 44.3814 5.70728C44.2922 5.43976 44.114 5.2614 43.9358 5.08305C43.7576 4.9047 43.5793 4.9047 43.4011 4.81552C43.2229 4.81552 42.9555 4.81552 42.7773 4.81552C42.5991 4.81552 42.3317 4.9047 42.0644 4.99387L39.9256 5.88564L40.995 8.6501L43.1337 7.84752Z" fill="white"/>
<path d="M48.4762 10.2553L46.5156 2.76447L51.5061 1.42682L51.6843 2.05105L47.4068 3.21035L48.1197 5.88564L51.9517 4.9047L52.1299 5.52893L48.2979 6.50987L49.1 9.45269L53.4667 8.2934L53.6449 8.91763L48.4762 10.2553Z" fill="white"/>
<path d="M57.7442 8.20422L57.0312 0.535058L59.7938 0.267529C60.3285 0.178353 60.685 0.267529 61.0415 0.356705C61.3979 0.445881 61.6653 0.535058 61.8435 0.71341C62.0217 0.891763 62.2 1.07012 62.2891 1.33764C62.3782 1.60517 62.4673 1.8727 62.4673 2.14023C62.4673 2.58611 62.4673 2.94282 62.2891 3.21035C62.1108 3.47788 61.9326 3.74541 61.6653 3.92376C61.3979 4.10211 61.1306 4.28046 60.7741 4.36964C60.4176 4.45882 60.0612 4.54799 59.7047 4.54799L58.1006 4.72634L58.4571 8.11505L57.7442 8.20422ZM59.7047 4.01293C60.0612 4.01293 60.3285 3.92376 60.5959 3.83458C60.8632 3.74541 61.0415 3.65623 61.2197 3.56705C61.3979 3.3887 61.487 3.29952 61.5761 3.03199C61.6653 2.85364 61.6653 2.58611 61.6653 2.22941C61.5761 1.78353 61.3979 1.42682 61.1306 1.15929C60.8632 0.980939 60.3285 0.891763 59.7047 0.891763L57.8333 1.07012L58.1006 4.10211L59.7047 4.01293Z" fill="white"/>
<path d="M64.9661 4.19129L64.877 7.66916H64.1641L64.3423 0L67.3722 0.0891763C68.2634 0.0891763 68.8872 0.267529 69.3328 0.624234C69.7783 0.980939 69.9566 1.516 69.9566 2.22941C69.9566 2.67529 69.8675 3.12117 69.6001 3.3887C69.4219 3.65623 69.0654 3.92376 68.6198 4.10211C68.8872 4.19129 69.0654 4.28046 69.1545 4.45882C69.2436 4.63717 69.3328 4.81552 69.4219 4.99387C69.511 5.17223 69.511 5.35058 69.511 5.61811C69.511 5.79646 69.511 6.06399 69.511 6.24234C69.511 6.50987 69.511 6.7774 69.511 6.95575C69.511 7.13411 69.511 7.31246 69.6001 7.40163C69.6892 7.49081 69.6892 7.57999 69.6892 7.66916C69.6892 7.75834 69.7783 7.75834 69.7783 7.84752V7.93669H68.9763C68.8872 7.84752 68.8872 7.66916 68.7981 7.40163C68.7981 7.13411 68.709 6.95575 68.709 6.68822C68.709 6.42069 68.709 6.15317 68.709 5.97481C68.709 5.70728 68.709 5.52893 68.6198 5.43976C68.6198 5.2614 68.5307 5.08305 68.4416 4.9047C68.3525 4.72634 68.4416 4.54799 68.2634 4.45882C68.0851 4.36964 67.996 4.36964 67.8178 4.28046C67.6396 4.19129 67.4613 4.28046 67.2831 4.28046L64.9661 4.19129ZM67.2831 3.65623C67.5505 3.65623 67.8178 3.65623 67.996 3.56705C68.2634 3.56705 68.4416 3.47788 68.6198 3.29952C68.7981 3.12117 68.9763 3.03199 69.0654 2.85364C69.1545 2.67529 69.2436 2.40776 69.2436 2.14023C69.2436 1.8727 69.2436 1.60517 69.0654 1.42682C68.9763 1.24847 68.7981 1.07012 68.6198 0.980939C68.4416 0.891763 68.2634 0.802587 67.996 0.713411C67.7287 0.624234 67.5505 0.624234 67.2831 0.624234H65.0552V3.56705L67.2831 3.65623Z" fill="white"/>
<path d="M71.5579 4.10211C71.647 3.56705 71.8252 3.032 72.0034 2.58611C72.2708 2.14023 72.5381 1.69435 72.8946 1.42682C73.2511 1.07012 73.6966 0.891763 74.1422 0.713411C74.5878 0.535058 75.1225 0.535058 75.7463 0.624234C76.3701 0.713411 76.8157 0.891763 77.2613 1.15929C77.7068 1.42682 77.9742 1.78353 78.2415 2.22941C78.5089 2.67529 78.6871 3.12117 78.6871 3.65623C78.7762 4.19129 78.7762 4.72635 78.6871 5.2614C78.598 5.79646 78.4198 6.24234 78.1524 6.68822C77.8851 7.13411 77.6177 7.49081 77.2613 7.84752C76.9048 8.20422 76.4592 8.38257 76.0137 8.56093C75.5681 8.73928 75.0334 8.73928 74.4096 8.6501C73.7858 8.56093 73.3402 8.38257 72.8946 8.11505C72.449 7.84752 72.1817 7.49081 71.9143 7.04493C71.647 6.59905 71.5579 6.15317 71.4688 5.70728C71.4688 5.17223 71.4688 4.63717 71.5579 4.10211ZM74.5878 8.02587C75.1225 8.11504 75.479 8.11504 75.9245 7.93669C76.281 7.84752 76.6375 7.57999 76.9048 7.31246C77.1722 7.04493 77.4395 6.68822 77.6177 6.33152C77.796 5.97481 77.8851 5.52893 77.9742 5.08305C78.0633 4.54799 78.0633 4.10211 77.9742 3.65623C77.8851 3.21035 77.796 2.85364 77.5286 2.49694C77.3504 2.14023 77.083 1.8727 76.7266 1.69435C76.3701 1.516 76.0137 1.33764 75.5681 1.24847C75.1225 1.15929 74.6769 1.15929 74.2313 1.33764C73.7858 1.516 73.5184 1.69435 73.2511 1.96188C72.9837 2.22941 72.7164 2.58611 72.5381 2.94282C72.3599 3.29952 72.2708 3.74541 72.1817 4.19129C72.0926 4.63717 72.0926 5.08305 72.1817 5.52893C72.2708 5.97481 72.3599 6.33152 72.5381 6.68822C72.7164 7.04493 72.9837 7.31246 73.3402 7.57999C73.6966 7.75834 74.0531 7.93669 74.5878 8.02587Z" fill="white"/>
<path d="M80.1131 7.04493C80.024 7.31246 80.024 7.49081 79.9348 7.75834C79.8457 8.02587 79.8457 8.20422 79.9348 8.38257C79.9348 8.56093 80.024 8.73928 80.2022 8.91763C80.3804 9.09598 80.5587 9.18516 80.9151 9.27434C81.3607 9.45269 81.8063 9.36351 82.0736 9.18516C82.341 9.00681 82.5192 8.56093 82.6974 8.11505L84.2124 2.76447L84.9253 2.94282L83.4104 8.2934C83.2321 9.00681 82.8757 9.54187 82.4301 9.80939C81.9845 10.0769 81.3607 10.1661 80.6478 9.89857C80.2022 9.80939 79.9349 9.63104 79.6675 9.36351C79.4893 9.18516 79.311 8.91763 79.2219 8.6501C79.1328 8.38257 79.1328 8.11504 79.1328 7.75834C79.1328 7.40163 79.2219 7.13411 79.311 6.7774L80.1131 7.04493Z" fill="white"/>
<path d="M84.4844 10.8795L87.3361 3.74541L92.0592 5.61811L91.7919 6.15317L87.6925 4.54799L86.7123 7.13411L90.366 8.56093L90.0987 9.09598L86.4449 7.66916L85.2864 10.5228L89.4749 12.2172L89.2075 12.7522L84.4844 10.8795Z" fill="white"/>
<path d="M97.9408 11.147C98.119 10.5228 98.119 9.98775 97.8517 9.54187C97.6735 9.09598 97.2279 8.73928 96.6932 8.38257C96.2476 8.20422 95.8911 8.02587 95.5347 8.02587C95.1782 8.02587 94.8218 8.11505 94.4653 8.2934C94.1088 8.47175 93.8415 8.73928 93.485 9.00681C93.1286 9.27434 92.9503 9.63104 92.683 10.0769C92.5047 10.4336 92.3265 10.8795 92.2374 11.2362C92.1483 11.5929 92.0592 12.0388 92.0592 12.3955C92.0592 12.7522 92.2374 13.1089 92.4156 13.4656C92.5939 13.8223 92.9503 14.0899 93.3959 14.3574C93.6632 14.5357 93.9306 14.6249 94.2871 14.6249C94.6435 14.6249 94.8217 14.6249 95.0891 14.5357C95.3564 14.4466 95.6238 14.3574 95.8911 14.179C96.1585 14.0007 96.3367 13.8223 96.6041 13.5548L97.2279 13.9115C96.9605 14.179 96.6932 14.4466 96.4258 14.6249C96.1585 14.8033 95.802 14.9816 95.4456 15.0708C95.0891 15.16 94.7326 15.16 94.2871 15.16C93.8415 15.16 93.485 14.9816 93.0394 14.7141C92.5047 14.4466 92.1483 14.0899 91.8809 13.7332C91.6136 13.3764 91.4354 12.9306 91.4354 12.4847C91.3462 12.0388 91.4353 11.5929 91.5245 11.0579C91.6136 10.612 91.8809 10.0769 92.1483 9.63104C92.5047 9.00681 92.8612 8.47175 93.3068 8.11505C93.7524 7.75834 94.1088 7.49081 94.5544 7.40163C95 7.31246 95.4456 7.22328 95.8911 7.31246C96.3367 7.40163 96.7823 7.57999 97.2279 7.75834C97.5843 7.93669 97.8517 8.20422 98.119 8.38257C98.3864 8.6501 98.5646 8.91763 98.6537 9.18516C98.7428 9.45269 98.832 9.80939 98.832 10.1661C98.832 10.5228 98.7428 10.8795 98.6537 11.2362L97.9408 11.147Z" fill="white"/>
<path d="M101.058 10.4336L105.603 13.644L105.246 14.179L103.286 12.7522L99.1863 18.5487L98.5625 18.1028L102.662 12.3063L100.701 10.8795L101.058 10.4336Z" fill="white"/>
<path d="M103.639 19.0837C103.461 19.3513 103.283 19.6188 103.194 19.8863C103.105 20.1538 103.105 20.4214 103.194 20.5997C103.283 20.8673 103.372 21.0456 103.461 21.3131C103.639 21.4915 103.817 21.759 103.996 21.9374C104.263 22.2049 104.53 22.2941 104.709 22.4724C104.976 22.5616 105.154 22.6508 105.422 22.6508C105.6 22.6508 105.867 22.5616 106.045 22.4724C106.224 22.3833 106.402 22.2941 106.491 22.1157C106.669 21.8482 106.758 21.6698 106.847 21.4023C106.937 21.1348 106.847 20.9564 106.758 20.6889C106.669 20.4214 106.58 20.243 106.402 19.9755C106.224 19.708 106.045 19.5296 105.867 19.2621C105.689 18.9946 105.511 18.727 105.422 18.5487C105.243 18.2811 105.154 18.0136 105.065 17.7461C104.976 17.4786 104.976 17.211 105.065 16.9435C105.154 16.676 105.243 16.4084 105.511 16.1409C105.689 15.9626 105.867 15.7842 106.135 15.695C106.402 15.6059 106.669 15.5167 106.937 15.5167C107.204 15.5167 107.56 15.6059 107.828 15.695C108.184 15.7842 108.452 16.0517 108.808 16.3193C109.164 16.5868 109.343 16.9435 109.521 17.211C109.699 17.4786 109.788 17.8353 109.788 18.1028C109.788 18.3703 109.788 18.727 109.699 18.9946C109.61 19.2621 109.432 19.5296 109.254 19.7971L108.719 19.3513C108.897 19.1729 109.075 18.9054 109.075 18.6378C109.075 18.3703 109.164 18.192 109.075 17.9244C108.986 17.6569 108.986 17.4786 108.808 17.3002C108.719 17.1219 108.541 16.9435 108.362 16.7651C108.095 16.4976 107.828 16.3193 107.56 16.2301C107.293 16.1409 107.026 16.1409 106.847 16.1409C106.669 16.1409 106.402 16.2301 106.224 16.3193C106.045 16.4084 105.867 16.5868 105.778 16.7651C105.689 16.9435 105.6 17.211 105.6 17.3894C105.6 17.5677 105.689 17.8353 105.778 18.0136C105.867 18.192 106.045 18.4595 106.224 18.727C106.402 18.9946 106.58 19.1729 106.758 19.4404C106.937 19.708 107.115 19.8863 107.204 20.1538C107.382 20.4214 107.471 20.6889 107.471 20.8673C107.471 21.0456 107.471 21.4023 107.471 21.6698C107.382 21.9374 107.204 22.2049 107.026 22.4724C106.58 23.0075 106.045 23.275 105.332 23.1858C104.62 23.0967 104.085 22.8291 103.372 22.2941C103.105 22.0265 102.837 21.759 102.659 21.4023C102.481 21.0456 102.392 20.7781 102.303 20.4214C102.213 20.0647 102.303 19.7971 102.392 19.4404C102.481 19.0837 102.659 18.8162 102.926 18.4595L103.639 19.0837Z" fill="white"/>
<path d="M114.068 27.7338C113.889 27.9122 113.622 28.0014 113.355 28.0905C113.087 28.1797 112.909 28.1797 112.642 28.1797C112.374 28.1797 112.196 28.0905 111.929 28.0014C111.661 27.9122 111.483 27.7338 111.305 27.5555C111.127 27.3771 111.038 27.1096 110.948 26.9312C110.859 26.7529 110.859 26.4854 110.859 26.2178C110.859 25.9503 110.948 25.772 111.038 25.5044C111.127 25.2369 111.305 25.0585 111.483 24.8802C111.661 24.7018 111.929 24.6127 112.196 24.5235C112.463 24.4343 112.731 24.4343 112.909 24.4343C113.176 24.4343 113.355 24.5235 113.622 24.6127C113.889 24.7018 114.068 24.8802 114.246 25.0585C114.424 25.2369 114.513 25.5044 114.602 25.772C114.691 26.0395 114.691 26.307 114.691 26.4854C114.691 26.7529 114.602 26.9312 114.513 27.1988C114.424 27.288 114.335 27.5555 114.068 27.7338Z" fill="white"/>
<path d="M115.939 32.9952C115.671 33.1736 115.404 33.4411 115.315 33.6195C115.137 33.887 115.047 34.0654 115.047 34.3329C115.047 34.6004 115.047 34.8679 115.137 35.0463C115.226 35.3138 115.315 35.5814 115.493 35.8489C115.671 36.1164 115.849 36.3839 116.028 36.5623C116.206 36.7406 116.473 36.8298 116.651 36.919C116.83 37.0082 117.097 37.0082 117.275 36.919C117.454 36.919 117.632 36.8298 117.899 36.7406C118.166 36.5623 118.345 36.3839 118.434 36.2056C118.523 36.0272 118.523 35.7597 118.523 35.4922C118.523 35.2246 118.434 34.9571 118.345 34.6896C118.256 34.4221 118.166 34.1545 118.077 33.7978C117.988 33.5303 117.899 33.2628 117.81 32.9061C117.721 32.5494 117.721 32.371 117.721 32.1035C117.721 31.8359 117.81 31.5684 117.988 31.3009C118.166 31.0334 118.345 30.855 118.701 30.6767C118.968 30.4983 119.147 30.4983 119.414 30.4091C119.681 30.4091 119.949 30.4091 120.216 30.4983C120.483 30.5875 120.751 30.7658 121.018 30.9442C121.286 31.2117 121.553 31.4792 121.731 31.8359C121.909 32.1927 122.088 32.5494 122.177 32.9061C122.266 33.2628 122.266 33.5303 122.177 33.887C122.088 34.1545 121.998 34.4221 121.82 34.6896C121.642 34.9571 121.375 35.1355 121.107 35.3138L120.751 34.6896C121.018 34.5112 121.196 34.3329 121.286 34.1545C121.375 33.9762 121.464 33.7086 121.553 33.5303C121.553 33.3519 121.553 33.0844 121.464 32.8169C121.375 32.5494 121.286 32.371 121.196 32.1926C121.018 31.8359 120.84 31.6576 120.573 31.4792C120.394 31.3009 120.127 31.2117 119.949 31.1225C119.771 31.0334 119.503 31.1225 119.325 31.1225C119.147 31.2117 118.968 31.3009 118.79 31.3901C118.612 31.5684 118.434 31.7468 118.434 31.9251C118.434 32.1035 118.345 32.371 118.434 32.6385C118.523 32.9061 118.523 33.1736 118.612 33.4411C118.701 33.7086 118.79 33.9762 118.879 34.2437C118.968 34.5112 119.058 34.7788 119.058 35.0463C119.058 35.3138 119.147 35.5814 119.058 35.8489C119.058 36.1164 118.968 36.3839 118.79 36.5623C118.612 36.8298 118.434 37.0082 118.077 37.1865C117.454 37.5432 116.83 37.6324 116.295 37.3649C115.671 37.1865 115.226 36.6515 114.691 35.8489C114.513 35.4922 114.334 35.1355 114.245 34.7788C114.156 34.4221 114.156 34.0654 114.156 33.7978C114.156 33.5303 114.334 33.1736 114.513 32.9061C114.691 32.6385 114.958 32.371 115.315 32.1926L115.939 32.9952Z" fill="white"/>
<path d="M117.102 39.5051L124.142 36.2948L126.28 40.9319L125.746 41.1995L123.963 37.1865L121.468 38.3458L123.072 42.002L122.538 42.2696L120.934 38.6133L118.171 39.8618L120.042 43.9639L119.508 44.2315L117.102 39.5051Z" fill="white"/>
<path d="M119.68 45.4799L126.987 43.1613L128.591 48.066L127.967 48.2444L126.631 44.0531L123.957 44.9449L125.205 48.6903L124.581 48.8686L123.333 45.1232L120.393 46.015L121.729 50.2954L121.106 50.4738L119.68 45.4799Z" fill="white"/>
<path d="M122.18 54.5759L129.844 53.595L130.022 54.6651L123.606 58.0538L130.646 59.659L130.824 60.7291L123.16 61.71L123.071 60.9966L129.844 60.1048L122.714 58.4105L122.625 57.6971L129.131 54.3084L122.358 55.2001L122.18 54.5759Z" fill="white"/>
<path d="M126.993 63.1368C127.528 63.1368 128.062 63.226 128.597 63.4044C129.043 63.5827 129.488 63.7611 129.845 64.1178C130.201 64.3853 130.469 64.8312 130.736 65.2771C130.914 65.7229 131.003 66.258 131.003 66.7931C131.003 67.4173 130.914 67.9523 130.647 68.3982C130.38 68.8441 130.112 69.2008 129.756 69.5575C129.399 69.9142 128.954 70.0926 128.419 70.1818C127.884 70.2709 127.35 70.3601 126.815 70.3601C126.28 70.3601 125.745 70.2709 125.211 70.0926C124.676 69.9142 124.32 69.7359 123.963 69.3792C123.607 69.1116 123.339 68.6658 123.072 68.2199C122.894 67.774 122.805 67.2389 122.805 66.6147C122.805 65.9905 122.894 65.5446 123.161 65.0987C123.428 64.6528 123.696 64.2961 124.052 64.0286C124.409 63.7611 124.854 63.4935 125.389 63.4044C125.924 63.226 126.458 63.1368 126.993 63.1368ZM123.518 66.7039C123.518 67.2389 123.607 67.5956 123.785 68.0415C123.963 68.3982 124.231 68.6658 124.498 68.9333C124.765 69.2008 125.211 69.3792 125.567 69.4683C126.013 69.5575 126.369 69.6467 126.815 69.6467C127.35 69.6467 127.795 69.6467 128.241 69.4683C128.686 69.3792 129.043 69.2008 129.31 68.9333C129.577 68.6658 129.845 68.3982 130.023 68.0415C130.201 67.6848 130.29 67.3281 130.29 66.8822C130.29 66.3472 130.201 65.9905 130.023 65.6338C129.845 65.2771 129.577 65.0095 129.31 64.742C129.043 64.4745 128.597 64.2961 128.241 64.2069C127.795 64.1178 127.439 64.0286 126.993 64.0286C126.548 64.0286 126.102 64.0286 125.656 64.2069C125.211 64.2961 124.854 64.4745 124.587 64.6528C124.32 64.8312 124.052 65.1879 123.785 65.5446C123.607 65.7229 123.518 66.1688 123.518 66.7039Z" fill="white"/>
<path d="M126.188 72.857L122.713 72.322L122.802 71.6086L130.377 72.7679L129.931 75.7107C129.842 76.5133 129.575 77.1375 129.129 77.5834C128.684 78.0293 128.238 78.1184 127.525 78.0293C127.08 77.9401 126.723 77.7617 126.456 77.5834C126.188 77.405 126.01 76.9592 125.921 76.5133C125.832 76.6916 125.654 76.87 125.476 76.9592C125.297 77.0483 125.119 77.1375 124.941 77.1375C124.763 77.1375 124.495 77.1375 124.317 77.1375C124.139 77.1375 123.871 77.1375 123.693 77.0483C123.426 77.0483 123.159 76.9592 122.98 76.9592C122.802 76.9592 122.624 76.9592 122.535 76.9592C122.446 76.9592 122.356 76.9592 122.267 77.0483C122.178 77.0483 122.178 77.1375 122.089 77.1375H122L122.089 76.3349C122.267 76.2457 122.446 76.2457 122.624 76.2457C122.802 76.2457 123.069 76.2457 123.337 76.2457C123.604 76.2457 123.871 76.2457 124.05 76.3349C124.228 76.4241 124.495 76.3349 124.673 76.3349C124.852 76.3349 125.03 76.2457 125.208 76.2457C125.386 76.1566 125.476 76.0674 125.565 75.9782C125.654 75.889 125.743 75.7107 125.743 75.5323C125.832 75.354 125.832 75.1756 125.832 74.9973L126.188 72.857ZM126.456 75.1756C126.456 75.4432 126.367 75.7107 126.456 75.9782C126.456 76.2457 126.545 76.4241 126.634 76.6025C126.723 76.7808 126.901 76.9592 127.08 77.0483C127.258 77.1375 127.436 77.2267 127.703 77.3159C127.971 77.3159 128.238 77.3159 128.416 77.2267C128.595 77.1375 128.773 77.0483 128.951 76.87C129.129 76.6916 129.218 76.5133 129.307 76.3349C129.397 76.1566 129.397 75.889 129.486 75.6215L129.842 73.3029L126.901 72.857L126.456 75.1756Z" fill="white"/>
<path d="M121.645 78.5643L129.041 80.6154L127.704 85.5201L127.081 85.3417L128.328 81.1504L125.655 80.437L124.585 84.2716L123.962 84.0933L125.031 80.2587L122.09 79.4561L120.843 83.8257L120.219 83.6474L121.645 78.5643Z" fill="white"/>
<path d="M118.794 87.5711L125.745 90.8707L124.586 93.4568C124.408 93.9027 124.141 94.2594 123.874 94.5269C123.606 94.7944 123.339 94.9728 123.161 95.0619C122.982 95.1511 122.626 95.1511 122.359 95.1511C122.091 95.1511 121.824 95.062 121.557 94.8836C121.2 94.7052 120.844 94.4377 120.665 94.1702C120.487 93.9027 120.398 93.6351 120.398 93.2784C120.398 92.9217 120.398 92.6542 120.487 92.2975C120.576 91.9408 120.665 91.5841 120.844 91.3165L121.557 89.8005L118.438 88.3737L118.794 87.5711ZM121.378 91.4949C121.2 91.7624 121.111 92.1191 121.022 92.3867C120.933 92.6542 120.933 92.9217 120.933 93.1001C120.933 93.2784 121.022 93.546 121.2 93.7243C121.378 93.9027 121.557 94.081 121.824 94.1702C122.269 94.3485 122.626 94.3485 122.982 94.1702C123.339 93.9918 123.695 93.5459 123.963 92.9217L124.765 91.2274L122.002 89.8897L121.378 91.4949Z" fill="white"/>
<path d="M118.521 95.9537L115.58 94.081L115.936 93.4568L122.442 97.4697L120.838 100.056C120.392 100.769 119.946 101.215 119.412 101.483C118.877 101.661 118.342 101.572 117.719 101.215C117.273 100.948 117.006 100.68 116.916 100.323C116.738 99.9666 116.738 99.6099 116.827 99.1641C116.649 99.3424 116.471 99.4316 116.293 99.4316C116.114 99.4316 115.936 99.4316 115.669 99.4316C115.401 99.4316 115.312 99.3424 115.045 99.2532C114.867 99.1641 114.689 99.0749 114.51 98.9857C114.243 98.8074 114.065 98.7182 113.887 98.629C113.708 98.5398 113.53 98.4507 113.441 98.4507C113.352 98.4507 113.263 98.3615 113.174 98.3615C113.084 98.3615 112.995 98.3615 112.995 98.3615H112.906L113.352 97.6481C113.53 97.6481 113.708 97.7372 113.887 97.8264C114.065 97.9156 114.332 98.0048 114.51 98.1831C114.689 98.2723 114.956 98.4507 115.134 98.5398C115.312 98.629 115.491 98.7182 115.669 98.8074C115.847 98.8965 116.025 98.8965 116.204 98.8965C116.382 98.8965 116.471 98.8074 116.649 98.7182C116.738 98.629 116.916 98.5398 117.006 98.3615C117.095 98.2723 117.184 98.0939 117.273 97.9156L118.521 95.9537ZM117.808 98.1831C117.629 98.4506 117.54 98.629 117.451 98.8965C117.362 99.1641 117.362 99.3424 117.362 99.5208C117.362 99.6991 117.451 99.9667 117.54 100.145C117.629 100.323 117.808 100.502 118.075 100.68C118.342 100.858 118.521 100.948 118.788 100.948C118.966 100.948 119.233 100.948 119.412 100.858C119.59 100.769 119.768 100.68 119.946 100.502C120.125 100.323 120.214 100.145 120.392 99.9666L121.64 98.0048L119.144 96.3996L117.808 98.1831Z" fill="white"/>
<path d="M115.317 101.661C115.763 102.018 116.119 102.374 116.387 102.82C116.654 103.266 116.832 103.712 116.921 104.158C117.011 104.604 117.011 105.05 116.921 105.585C116.832 106.031 116.565 106.566 116.209 107.012C115.852 107.457 115.407 107.814 114.961 107.993C114.515 108.171 114.07 108.349 113.535 108.349C113.089 108.349 112.555 108.26 112.109 108.082C111.664 107.903 111.129 107.636 110.772 107.279C110.327 106.922 109.97 106.566 109.703 106.12C109.436 105.674 109.258 105.228 109.168 104.782C109.079 104.336 109.079 103.801 109.168 103.355C109.258 102.909 109.525 102.374 109.881 101.929C110.238 101.483 110.683 101.126 111.129 100.948C111.575 100.769 112.02 100.591 112.555 100.591C113 100.591 113.535 100.68 113.981 100.858C114.426 101.037 114.872 101.304 115.317 101.661ZM110.416 102.196C110.06 102.553 109.881 102.999 109.792 103.355C109.703 103.712 109.703 104.158 109.792 104.515C109.881 104.871 110.06 105.228 110.327 105.585C110.594 105.941 110.862 106.209 111.218 106.566C111.664 106.922 112.02 107.19 112.466 107.368C112.911 107.547 113.268 107.636 113.624 107.636C113.981 107.636 114.426 107.547 114.694 107.368C114.961 107.19 115.317 106.922 115.674 106.566C115.941 106.209 116.209 105.763 116.298 105.406C116.387 105.05 116.387 104.604 116.298 104.247C116.209 103.89 116.03 103.534 115.763 103.177C115.496 102.82 115.228 102.553 114.872 102.196C114.515 101.929 114.159 101.661 113.802 101.483C113.446 101.304 113 101.215 112.644 101.215C112.287 101.215 111.842 101.304 111.485 101.393C111.04 101.572 110.683 101.839 110.416 102.196Z" fill="white"/>
<path d="M108.365 107.547C108.186 107.368 108.008 107.19 107.83 107.012C107.652 106.833 107.474 106.744 107.295 106.655C107.117 106.566 106.939 106.566 106.671 106.655C106.493 106.744 106.226 106.833 105.959 107.101C105.602 107.457 105.424 107.814 105.513 108.171C105.602 108.528 105.78 108.884 106.137 109.241L109.969 113.254L109.434 113.789L105.513 109.776C104.978 109.241 104.711 108.706 104.711 108.171C104.711 107.636 104.978 107.101 105.513 106.566C105.869 106.298 106.137 106.031 106.404 106.031C106.671 105.941 106.939 105.941 107.295 106.031C107.563 106.12 107.83 106.209 108.097 106.477C108.365 106.744 108.632 106.922 108.81 107.101L108.365 107.547Z" fill="white"/>
<path d="M102.932 109.33L107.655 115.394L103.645 118.515L103.289 118.069L106.764 115.394L105.071 113.165L101.952 115.573L101.595 115.127L104.714 112.719L102.843 110.311L99.2783 113.076L98.9219 112.63L102.932 109.33Z" fill="white"/>
<path d="M95.8905 120.745C96.3361 121.191 96.8708 121.458 97.3163 121.547C97.851 121.547 98.2966 121.458 98.9204 121.101C99.2769 120.834 99.6334 120.566 99.8116 120.21C99.9898 119.853 100.079 119.496 100.168 119.14C100.168 118.783 100.168 118.337 99.9898 117.98C99.9007 117.534 99.7225 117.178 99.4551 116.821C99.2769 116.464 99.0095 116.108 98.6531 115.84C98.2966 115.573 98.0293 115.305 97.6728 115.127C97.3163 114.948 96.9599 114.859 96.5143 114.859C96.0687 114.859 95.7123 115.037 95.2667 115.305C94.9993 115.483 94.732 115.662 94.5538 115.929C94.3755 116.197 94.2864 116.375 94.1973 116.643C94.1082 116.91 94.1082 117.178 94.1082 117.445C94.1082 117.713 94.1973 118.069 94.2864 118.337L93.6626 118.694C93.5735 118.337 93.4844 117.98 93.4844 117.624C93.4844 117.267 93.4844 116.91 93.5735 116.553C93.6626 116.197 93.8408 115.84 94.1082 115.573C94.3755 115.216 94.732 114.948 95.1776 114.681C95.7123 114.413 96.1578 114.235 96.6034 114.146C97.049 114.057 97.4946 114.146 97.9402 114.413C98.3857 114.592 98.7422 114.859 99.0987 115.216C99.4551 115.573 99.8116 116.018 100.079 116.464C100.435 117.089 100.703 117.713 100.792 118.248C100.881 118.783 100.881 119.229 100.792 119.675C100.703 120.121 100.525 120.477 100.168 120.834C99.9007 121.191 99.5442 121.458 99.0987 121.726C98.7422 121.904 98.3857 122.082 98.1184 122.172C97.7619 122.261 97.4055 122.261 97.1381 122.261C96.7817 122.261 96.5143 122.082 96.1578 121.904C95.8905 121.726 95.534 121.458 95.3558 121.191L95.8905 120.745Z" fill="white"/>
<path d="M94.9114 123.866L89.8318 126.184L89.5645 125.649L91.7924 124.668L88.8516 118.248L89.4754 117.98L92.4162 124.401L94.6441 123.42L94.9114 123.866Z" fill="white"/>
<path d="M86.1761 121.726C86.087 121.369 85.9088 121.191 85.7306 121.012C85.5523 120.834 85.285 120.656 85.1068 120.566C84.8394 120.477 84.6612 120.477 84.3938 120.477C84.1265 120.477 83.8591 120.566 83.5918 120.656C83.2353 120.745 82.968 120.923 82.7897 121.012C82.6115 121.101 82.4333 121.369 82.3442 121.547C82.2551 121.726 82.1659 121.904 82.1659 122.172C82.1659 122.35 82.1659 122.617 82.2551 122.796C82.3442 123.063 82.5224 123.331 82.7006 123.42C82.8789 123.598 83.1462 123.688 83.3244 123.688C83.5918 123.688 83.8591 123.777 84.1265 123.688C84.3938 123.598 84.7503 123.688 85.0176 123.598C85.285 123.598 85.6414 123.598 85.9088 123.598C86.1761 123.598 86.4435 123.598 86.7108 123.688C86.9782 123.777 87.1564 123.866 87.4238 124.133C87.602 124.312 87.7802 124.579 87.8693 124.936C87.9585 125.204 87.9585 125.471 87.9585 125.739C87.9585 126.006 87.8693 126.274 87.6911 126.541C87.5129 126.809 87.3346 126.987 87.0673 127.255C86.7999 127.433 86.4435 127.611 86.087 127.79C85.6414 127.968 85.285 127.968 84.9285 127.968C84.5721 127.968 84.3047 127.879 84.0374 127.79C83.77 127.7 83.5027 127.433 83.3244 127.255C83.1462 127.076 82.968 126.72 82.8789 126.452L83.5027 126.274C83.5918 126.541 83.6809 126.809 83.8591 126.987C84.0374 127.165 84.2156 127.255 84.3938 127.344C84.5721 127.433 84.8394 127.433 85.1068 127.433C85.3741 127.433 85.5523 127.344 85.8197 127.344C86.1761 127.255 86.4435 127.076 86.6217 126.898C86.7999 126.72 86.9782 126.541 87.0673 126.363C87.1564 126.184 87.1564 125.917 87.1564 125.739C87.1564 125.56 87.0673 125.382 86.9782 125.204C86.8891 124.936 86.7108 124.847 86.5326 124.758C86.3544 124.668 86.087 124.579 85.9088 124.579C85.6414 124.579 85.3741 124.579 85.1068 124.579C84.8394 124.579 84.5721 124.668 84.2156 124.668C83.9482 124.668 83.5918 124.668 83.3244 124.668C83.0571 124.668 82.7897 124.579 82.5224 124.49C82.255 124.401 82.0768 124.223 81.8986 124.044C81.7204 123.866 81.5421 123.598 81.453 123.242C81.2748 122.528 81.2748 121.993 81.6312 121.458C81.9877 120.923 82.6115 120.566 83.4136 120.21C83.77 120.12 84.1265 120.031 84.4829 120.031C84.8394 120.031 85.1959 120.12 85.4632 120.21C85.7306 120.299 85.9979 120.477 86.2653 120.745C86.5326 121.012 86.7108 121.28 86.8 121.726H86.1761Z" fill="white"/>
<path d="M73.4297 126.452C73.4297 126.184 73.4297 125.917 73.4297 125.649C73.5188 125.382 73.6079 125.204 73.7862 125.025C73.9644 124.847 74.1426 124.668 74.3208 124.49C74.4991 124.312 74.7664 124.223 75.0338 124.223C75.3011 124.223 75.5685 124.223 75.8358 124.223C76.1032 124.223 76.2814 124.401 76.4596 124.49C76.6379 124.668 76.8161 124.847 76.9943 125.025C77.1725 125.204 77.2617 125.471 77.2617 125.739C77.2617 126.006 77.2617 126.274 77.2617 126.541C77.1725 126.809 77.0834 126.987 76.9943 127.255C76.8161 127.433 76.6379 127.611 76.4596 127.79C76.2814 127.968 76.014 128.057 75.7467 128.057C75.4793 128.057 75.212 128.057 74.9447 128.057C74.6773 127.968 74.4991 127.879 74.2317 127.7C74.0535 127.522 73.8753 127.344 73.697 127.165C73.6079 126.898 73.5188 126.63 73.4297 126.452Z" fill="white"/>
<path d="M67.9937 125.293C67.9937 124.936 67.9045 124.668 67.7263 124.401C67.6372 124.133 67.459 123.955 67.2807 123.866C67.1025 123.777 66.8351 123.598 66.5678 123.509C66.3005 123.42 66.0331 123.42 65.7658 123.42C65.4093 123.42 65.142 123.509 64.8746 123.598C64.6073 123.688 64.429 123.777 64.2508 123.955C64.0726 124.133 63.9834 124.312 63.8943 124.49C63.8052 124.668 63.8052 124.847 63.8052 125.114C63.8052 125.382 63.8943 125.649 63.9835 125.828C64.0726 126.006 64.3399 126.184 64.5181 126.274C64.6964 126.363 64.9637 126.452 65.2311 126.541C65.4984 126.63 65.7658 126.63 66.1222 126.72C66.3896 126.809 66.746 126.898 67.0134 126.987C67.2807 127.076 67.5481 127.165 67.7263 127.344C67.9045 127.522 68.0828 127.7 68.261 127.968C68.4392 128.236 68.4392 128.503 68.4392 128.86C68.4392 129.127 68.3501 129.395 68.261 129.662C68.1719 129.93 67.9937 130.108 67.8154 130.376C67.6372 130.554 67.3698 130.732 67.0134 130.822C66.6569 130.911 66.3005 131 65.8549 131C65.4093 131 65.0528 130.911 64.6964 130.822C64.3399 130.732 64.0726 130.554 63.8943 130.376C63.7161 130.197 63.5379 129.93 63.3596 129.662C63.1814 129.395 63.1814 129.127 63.1814 128.771H63.8943C63.8943 129.038 63.9835 129.306 64.0726 129.484C64.1617 129.662 64.3399 129.841 64.5181 130.019C64.6964 130.108 64.8746 130.287 65.142 130.287C65.4093 130.376 65.5875 130.376 65.8549 130.376C66.2113 130.376 66.5678 130.287 66.746 130.197C66.9243 130.108 67.1916 129.93 67.3698 129.752C67.5481 129.573 67.6372 129.395 67.6372 129.216C67.6372 129.038 67.7263 128.86 67.6372 128.592C67.5481 128.325 67.459 128.146 67.3698 127.968C67.1916 127.79 67.0134 127.7 66.746 127.611C66.4787 127.522 66.3005 127.433 65.944 127.344C65.6766 127.255 65.4093 127.255 65.142 127.165C64.8746 127.076 64.6073 126.987 64.3399 126.898C64.0726 126.809 63.8052 126.72 63.627 126.541C63.4488 126.363 63.2705 126.184 63.0923 125.917C63.0032 125.649 62.9141 125.382 62.9141 125.025C62.9141 124.312 63.1814 123.777 63.627 123.331C64.0726 122.885 64.7855 122.707 65.6766 122.707C66.0331 122.707 66.4787 122.707 66.8352 122.885C67.1916 122.974 67.459 123.152 67.7263 123.331C67.9937 123.509 68.1719 123.777 68.3501 124.133C68.5283 124.401 68.5283 124.847 68.6175 125.204L67.9937 125.293Z" fill="white"/>
<path d="M61.7566 122.974L60.9546 130.643L55.875 130.108L55.9641 129.484L60.3308 129.93L60.5981 127.165L56.677 126.72L56.7662 126.095L60.6872 126.541L61.0437 123.509L56.5879 123.063L56.677 122.439L61.7566 122.974Z" fill="white"/>
<path d="M55.3399 122.172L53.6467 129.662L48.6562 128.592L48.8345 127.968L53.112 128.949L53.7358 126.274L49.9039 125.382L50.0821 124.758L53.9141 125.649L54.5379 122.617L50.1712 121.636L50.3494 121.012L55.3399 122.172Z" fill="white"/>
<path d="M46.1636 119.853L43.1336 126.898L42.1533 126.452L42.5098 119.229L37.5193 124.49L36.5391 124.044L39.569 116.999L40.2819 117.267L37.6085 123.598L42.5989 118.248L43.2227 118.515L42.8663 125.828L45.5397 119.496L46.1636 119.853Z" fill="white"/>
<path d="M36.3598 119.675C36.0924 120.12 35.7359 120.566 35.2904 120.923C34.9339 121.28 34.4883 121.547 34.0428 121.636C33.5972 121.726 33.1516 121.815 32.6169 121.815C32.1713 121.726 31.6366 121.547 31.191 121.28C30.6564 120.923 30.2999 120.566 30.0325 120.21C29.7652 119.764 29.587 119.318 29.4979 118.872C29.4087 118.426 29.4979 117.891 29.587 117.445C29.6761 116.999 29.9434 116.464 30.2108 115.929C30.4781 115.483 30.8346 115.037 31.191 114.681C31.5475 114.324 31.9931 114.057 32.4387 113.967C32.8842 113.789 33.3298 113.789 33.8645 113.789C34.3992 113.878 34.8448 114.057 35.3795 114.324C35.9142 114.592 36.2706 115.037 36.538 115.394C36.8053 115.84 36.9836 116.286 37.0727 116.732C37.1618 117.178 37.0727 117.713 36.9836 118.159C36.8945 118.694 36.6271 119.14 36.3598 119.675ZM35.1121 114.859C34.6666 114.592 34.3101 114.413 33.8645 114.413C33.4189 114.413 33.0625 114.413 32.706 114.592C32.3496 114.77 31.9931 114.948 31.7257 115.216C31.4584 115.483 31.1019 115.84 30.9237 116.197C30.6564 116.643 30.4781 117.089 30.2999 117.534C30.1217 117.98 30.1217 118.337 30.2108 118.783C30.2999 119.14 30.389 119.496 30.6564 119.853C30.8346 120.21 31.1911 120.477 31.5475 120.656C31.9931 120.923 32.3496 121.012 32.7951 121.101C33.2407 121.191 33.5972 121.101 33.9536 120.923C34.3101 120.745 34.6666 120.566 34.9339 120.299C35.2013 120.031 35.5577 119.675 35.7359 119.318C36.0033 118.961 36.1815 118.515 36.2706 118.159C36.3598 117.713 36.4489 117.356 36.4489 116.999C36.4489 116.643 36.2706 116.286 36.0924 115.929C35.9142 115.573 35.5577 115.127 35.1121 114.859Z" fill="white"/>
<path d="M28.428 114.057L30.6558 111.381L31.1905 111.827L26.2892 117.802L23.9722 115.929C23.3484 115.394 22.9028 114.859 22.7245 114.324C22.5463 113.789 22.7245 113.254 23.1701 112.719C23.4375 112.362 23.7939 112.095 24.1504 112.005C24.5069 111.916 24.8633 111.916 25.3089 112.005C25.2198 111.827 25.1307 111.56 25.1307 111.381C25.1307 111.203 25.1307 111.025 25.2198 110.757C25.3089 110.489 25.398 110.4 25.4871 110.222C25.5763 110.044 25.7545 109.865 25.8436 109.687C26.0218 109.419 26.2001 109.241 26.2892 109.063C26.3783 108.884 26.4674 108.795 26.5565 108.617C26.6456 108.528 26.6456 108.438 26.6456 108.349C26.6456 108.26 26.6456 108.171 26.6456 108.171V108.082L27.2694 108.617C27.2694 108.795 27.1803 108.973 27.0912 109.152C27.0021 109.33 26.8239 109.509 26.7348 109.776C26.5565 109.954 26.4674 110.222 26.2892 110.4C26.1109 110.579 26.0218 110.757 25.9327 110.846C25.8436 111.025 25.7545 111.203 25.7545 111.381C25.7545 111.56 25.7545 111.649 25.8436 111.827C25.9327 112.005 26.0218 112.095 26.1109 112.184C26.2001 112.273 26.3783 112.451 26.4674 112.541L28.428 114.057ZM26.2892 113.076C26.1109 112.897 25.8436 112.808 25.6654 112.63C25.4871 112.541 25.2198 112.451 25.0416 112.451C24.8633 112.451 24.596 112.451 24.4177 112.541C24.2395 112.63 24.0613 112.808 23.8831 112.986C23.7048 113.165 23.6157 113.432 23.5266 113.611C23.5266 113.789 23.5266 114.057 23.6157 114.235C23.7048 114.413 23.7939 114.592 23.9722 114.77C24.1504 114.948 24.3286 115.127 24.5069 115.305L26.2892 116.732L28.1606 114.413L26.2892 113.076Z" fill="white"/>
<path d="M25.7539 107.19L20.2287 112.541L16.6641 108.884L17.1096 108.438L20.1396 111.56L22.1001 109.598L19.3375 106.744L19.7831 106.298L22.5457 109.152L24.7736 107.012L21.6545 103.801L22.1001 103.355L25.7539 107.19Z" fill="white"/>
<path d="M19.4301 100.145L13.1029 104.515L11.4988 102.196C11.2315 101.75 11.0532 101.393 10.9641 101.126C10.875 100.858 10.875 100.502 10.875 100.234C10.9641 99.9667 11.0532 99.6991 11.2315 99.5208C11.4097 99.3424 11.5879 99.1641 11.8553 98.9857C12.2117 98.7182 12.5682 98.629 12.8355 98.629C13.192 98.629 13.4594 98.7182 13.7267 98.8074C13.994 98.9857 14.2614 99.1641 14.5287 99.4316C14.7961 99.6991 14.9743 99.9667 15.2417 100.234L16.2219 101.572L18.9845 99.6099L19.4301 100.145ZM14.7961 100.413C14.6179 100.145 14.4396 99.8775 14.2614 99.6991C14.0832 99.5208 13.9049 99.3424 13.6376 99.2532C13.4594 99.1641 13.192 99.1641 13.0138 99.1641C12.7464 99.1641 12.5682 99.3424 12.3009 99.5208C11.9444 99.7883 11.677 100.145 11.677 100.502C11.677 100.948 11.8553 101.393 12.2117 101.929L13.2811 103.445L15.7764 101.661L14.7961 100.413Z" fill="white"/>
<path d="M12.3906 95.7754L15.5097 94.1702L15.8661 94.7944L9.09336 98.3615L7.66751 95.6862C7.31104 94.9728 7.13281 94.2594 7.13281 93.7243C7.22193 93.1892 7.57839 92.7434 8.2022 92.3867C8.64778 92.1191 9.00424 92.03 9.3607 92.1191C9.71717 92.1191 10.0736 92.2975 10.4301 92.6542C10.4301 92.3867 10.4301 92.2083 10.5192 92.03C10.6083 91.8516 10.6974 91.6732 10.8757 91.4949C11.0539 91.3165 11.143 91.2274 11.3212 91.1382C11.4995 91.049 11.6777 90.8707 11.8559 90.7815C12.1233 90.6031 12.3015 90.514 12.4798 90.4248C12.658 90.3356 12.7471 90.2464 12.8362 90.1573C12.9253 90.0681 13.0144 89.9789 13.0144 89.9789C13.0144 89.8897 13.1036 89.8897 13.1036 89.8005H13.1927L13.5491 90.514C13.46 90.6031 13.3709 90.7815 13.1927 90.8707C13.0144 91.049 12.8362 91.1382 12.5689 91.3165C12.3906 91.4057 12.1233 91.5841 11.9451 91.6733C11.7668 91.7624 11.5886 91.9408 11.4995 92.03C11.3212 92.2083 11.2321 92.2975 11.143 92.4758C11.0539 92.6542 11.0539 92.7434 11.0539 92.9217C11.0539 93.1001 11.0539 93.1892 11.143 93.3676C11.2321 93.546 11.2321 93.7243 11.3212 93.8135L12.3906 95.7754ZM10.7866 93.9918C10.6974 93.7243 10.5192 93.546 10.341 93.3676C10.1627 93.1892 9.98451 93.0109 9.80628 92.9217C9.62805 92.8325 9.44982 92.7434 9.18247 92.7434C9.00424 92.7434 8.73689 92.8325 8.46955 92.9217C8.2022 93.0109 8.02397 93.1892 7.93485 93.3676C7.84574 93.546 7.75662 93.7243 7.75662 93.9027C7.75662 94.081 7.75662 94.3485 7.84574 94.5269C7.93485 94.7052 8.02397 94.9728 8.11308 95.1511L9.18247 97.2022L11.7668 95.7754L10.7866 93.9918Z" fill="white"/>
<path d="M9.08595 90.0681C8.55125 90.2464 8.01656 90.3356 7.48187 90.4248C6.94717 90.514 6.50159 90.4248 6.05602 90.2464C5.61044 90.0681 5.16486 89.8897 4.89751 89.533C4.54105 89.1763 4.2737 88.7304 4.09547 88.1954C3.91724 87.6603 3.82812 87.1253 3.82812 86.5902C3.82812 86.0551 4.00636 85.6093 4.2737 85.2526C4.54105 84.8067 4.8084 84.45 5.25398 84.1824C5.69955 83.9149 6.14513 83.6474 6.67983 83.3798C7.21452 83.2015 7.74921 83.1123 8.19479 83.0231C8.64037 82.934 9.17506 83.0231 9.62064 83.2015C10.0662 83.3799 10.5118 83.6474 10.8683 83.9149C11.2247 84.2716 11.4921 84.7175 11.6703 85.2526C11.8485 85.7876 11.9376 86.3227 11.9376 86.8577C11.9376 87.3928 11.7594 87.8387 11.4921 88.1954C11.2247 88.5521 10.9574 88.998 10.5118 89.2655C10.0662 89.6222 9.62064 89.8897 9.08595 90.0681ZM11.0465 85.5201C10.8683 85.0742 10.6009 84.7175 10.3336 84.45C10.0662 84.1824 9.70976 84.0041 9.3533 83.9149C8.99683 83.8257 8.55125 83.7366 8.19479 83.8257C7.74921 83.8257 7.30364 84.0041 6.94717 84.0933C6.41248 84.2716 6.05602 84.5391 5.69955 84.8067C5.34309 85.0742 5.07574 85.3417 4.89751 85.6984C4.54105 85.966 4.45193 86.3227 4.45193 86.6794C4.45193 87.0361 4.45193 87.482 4.63017 87.9278C4.8084 88.3737 5.07574 88.7304 5.34309 88.998C5.61044 89.2655 5.9669 89.4438 6.32336 89.533C6.67983 89.6222 7.1254 89.7114 7.57098 89.6222C8.01656 89.6222 8.46214 89.4438 8.8186 89.3547C9.26418 89.1763 9.62064 88.998 9.9771 88.7304C10.3336 88.4629 10.6009 88.1954 10.7791 87.8387C10.9574 87.482 11.1356 87.1253 11.1356 86.7686C11.3138 86.4118 11.2247 85.966 11.0465 85.5201Z" fill="white"/>
<path d="M7.48319 81.1504C7.75054 81.0613 7.92877 81.0613 8.19612 80.9721C8.46347 80.8829 8.6417 80.7937 8.81993 80.7046C8.99816 80.6154 9.08728 80.437 9.17639 80.1695C9.26551 79.9912 9.26551 79.7236 9.17639 79.3669C9.08728 78.921 8.81993 78.5643 8.55258 78.4752C8.19612 78.386 7.83966 78.386 7.30496 78.4752L1.77979 79.7236L1.60156 79.0102L7.03762 77.6726C7.75054 77.4942 8.37435 77.4942 8.81993 77.7617C9.26551 78.0293 9.62197 78.4752 9.8002 79.1886C9.88932 79.6345 9.88932 79.9912 9.8002 80.2587C9.71109 80.5262 9.53286 80.7937 9.35462 80.9721C9.17639 81.1504 8.90905 81.3288 8.6417 81.418C8.37435 81.5072 8.01789 81.6855 7.66143 81.6855L7.48319 81.1504Z" fill="white"/>
<path d="M8.73624 75.4432L1.0723 76.4241L0.359375 71.3411H1.0723L1.69611 75.7107L4.45869 75.354L3.83488 71.3411L4.45869 71.2519L4.99339 75.1756L8.02332 74.8189L7.39951 70.3601L8.02332 70.2709L8.73624 75.4432Z" fill="white"/>
<path d="M2.40612 63.6719C1.78231 63.8502 1.24762 64.1178 0.980272 64.5637C0.712925 65.0095 0.534694 65.5446 0.62381 66.1688C0.62381 66.6147 0.712925 67.0606 0.891157 67.3281C1.06939 67.5956 1.33673 67.9524 1.6932 68.1307C2.04966 68.3091 2.40612 68.4874 2.76259 68.5766C3.11905 68.6658 3.56463 68.7549 4.09932 68.7549C4.5449 68.7549 4.99048 68.6658 5.34694 68.5766C5.79252 68.4874 6.14898 68.3091 6.41633 68.1307C6.68367 67.9524 6.95102 67.5957 7.21837 67.2389C7.3966 66.8822 7.48571 66.4364 7.48571 65.9905C7.48571 65.6338 7.3966 65.3662 7.30748 65.0987C7.21837 64.8312 7.04014 64.5637 6.86191 64.3853C6.68367 64.2069 6.41633 64.0286 6.14898 63.8502C5.88163 63.6719 5.61429 63.5827 5.25782 63.5827V62.7801C5.61429 62.8693 5.97075 62.9585 6.32721 63.1368C6.68367 63.3152 6.95102 63.4935 7.21837 63.7611C7.48572 64.0286 7.66395 64.3853 7.84218 64.742C8.02041 65.0987 8.10952 65.5446 8.10952 66.0797C8.10952 66.7039 8.02041 67.1498 7.84218 67.5957C7.66395 68.0415 7.30748 68.3982 6.95102 68.6658C6.59456 68.9333 6.14898 69.1116 5.7034 69.29C5.25782 69.3792 4.72313 69.4684 4.18844 69.4684C3.47551 69.4684 2.8517 69.3792 2.31701 69.2008C1.78231 69.0225 1.33673 68.7549 1.06939 68.4874C0.712925 68.1307 0.534694 67.774 0.356463 67.3281C0.178231 66.8822 0 66.4364 0 65.9013C0 65.5446 0 65.0987 0.178231 64.8312C0.267347 64.4745 0.445578 64.2069 0.62381 63.9394C0.802041 63.6719 1.06939 63.4935 1.33673 63.3152C1.60408 63.1368 1.96054 63.0477 2.40612 62.9585V63.6719Z" fill="white"/>
<path d="M0.265625 61.2641L0.889435 55.646L1.51324 55.7352L1.2459 58.143L8.28603 58.8564L8.19692 59.5698L1.15678 58.8564L0.889435 61.3533L0.265625 61.2641Z" fill="white"/>
<path d="M6.50147 54.7543C6.85793 54.7543 7.12528 54.7543 7.39262 54.7543C7.65997 54.6651 7.8382 54.5759 8.10555 54.3976C8.3729 54.2192 8.46201 54.0408 8.55113 53.7733C8.64024 53.5058 8.72936 53.2383 8.81847 52.9707C8.90759 52.614 8.90759 52.3465 8.90759 52.079C8.90759 51.8114 8.81847 51.6331 8.72936 51.3656C8.64024 51.098 8.46201 51.0089 8.28378 50.9197C8.10555 50.8305 7.92732 50.7413 7.74909 50.6521C7.48174 50.563 7.21439 50.563 7.03616 50.6521C6.85793 50.7413 6.6797 50.9197 6.50147 51.098C6.32324 51.2764 6.23412 51.5439 6.05589 51.8114C5.96677 52.079 5.78854 52.3465 5.69943 52.614C5.61031 52.8816 5.43208 53.1491 5.25385 53.4166C5.07562 53.6841 4.89739 53.8625 4.71915 54.0408C4.54092 54.2192 4.27358 54.3084 4.00623 54.3976C3.73888 54.4867 3.38242 54.4867 3.02596 54.3976C2.66949 54.3976 2.40215 54.3084 2.22392 54.13C2.04568 53.9517 1.77834 53.7733 1.68922 53.5058C1.60011 53.2383 1.42188 52.9707 1.42188 52.614C1.42188 52.2573 1.42188 51.9006 1.51099 51.4547C1.60011 51.0089 1.77834 50.6521 1.95657 50.3846C2.1348 50.1171 2.40215 49.8496 2.58038 49.6712C2.75861 49.4929 3.11507 49.4037 3.38242 49.3145C3.64977 49.2253 4.00623 49.3145 4.27358 49.3145L4.09534 50.0279C3.828 49.9387 3.56065 49.9387 3.2933 50.0279C3.02596 50.1171 2.84773 50.2063 2.66949 50.2954C2.49126 50.4738 2.40215 50.6521 2.22392 50.8305C2.1348 51.0089 2.04568 51.2764 1.95657 51.5439C1.86745 51.9006 1.86745 52.2573 1.86745 52.5249C1.95657 52.7924 2.04568 53.0599 2.1348 53.2383C2.22392 53.4166 2.40215 53.595 2.58038 53.6841C2.75861 53.7733 2.93684 53.8625 3.11507 53.8625C3.38242 53.8625 3.56065 53.8625 3.73888 53.6841C4.18446 53.5058 4.36269 53.3274 4.45181 53.1491C4.63004 52.9707 4.71915 52.7032 4.80827 52.4357C4.89739 52.1681 5.07562 51.9006 5.16473 51.6331C5.25385 51.3656 5.43208 51.098 5.61031 50.8305C5.78854 50.563 5.96677 50.3846 6.145 50.2063C6.32324 50.0279 6.59058 49.9387 6.85793 49.8496C7.12528 49.9387 7.39262 49.9387 7.8382 49.9387C8.55113 50.1171 8.9967 50.4738 9.26405 51.0089C9.5314 51.5439 9.62051 52.2573 9.44228 53.1491C9.35317 53.5058 9.26405 53.8625 9.08582 54.2192C8.90759 54.5759 8.72936 54.7543 8.46201 55.0218C8.19466 55.2001 7.92732 55.3785 7.57085 55.4677C7.21439 55.5568 6.85793 55.5568 6.41235 55.4677L6.50147 54.7543Z" fill="white"/>
<path d="M8.90784 41.3778C9.17519 41.467 9.35342 41.6453 9.53165 41.8237C9.70988 42.002 9.88812 42.1804 9.97723 42.4479C10.0663 42.7155 10.1555 42.8938 10.1555 43.1613C10.1555 43.4289 10.1555 43.6964 10.0663 43.8747C9.97723 44.0531 9.799 44.3206 9.62077 44.499C9.44254 44.6773 9.26431 44.8557 8.99696 44.9449C8.72961 45.034 8.55138 45.1232 8.28403 45.1232C8.01669 45.1232 7.74934 45.1232 7.57111 45.034C7.30376 44.9449 7.12553 44.7665 6.9473 44.5882C6.76907 44.4098 6.59084 44.2315 6.50172 43.9639C6.32349 43.7856 6.23438 43.518 6.23438 43.2505C6.23438 42.983 6.23437 42.7155 6.32349 42.5371C6.41261 42.2696 6.59084 42.0912 6.76907 41.9129C6.9473 41.7345 7.12553 41.5562 7.39288 41.467C7.66023 41.3778 7.83846 41.2886 8.1058 41.2886C8.37315 41.2886 8.6405 41.2886 8.90784 41.3778Z" fill="white"/>
</svg>
