<svg width="163" height="32" viewBox="0 0 163 32" fill="none" xmlns="http://www.w3.org/2000/svg">
<path d="M58.6704 13.2907C58.6704 10.5575 56.7965 7.89319 52.767 7.89319H42.3438V24.1087H45.8579V10.8115H52.2534C54.2217 10.8115 55.1578 11.7619 55.1578 13.2907C55.1578 14.8424 54.2201 15.7928 52.2534 15.7928H49.5328C48.3001 15.7928 47.6076 16.4778 47.6076 17.6969V18.7128H49.5593C50.4723 18.7128 51.1516 19.0143 51.7149 19.732L55.181 24.1103H59.4905L54.6658 18.041C57.2422 17.4593 58.6704 15.7912 58.6704 13.2907Z" fill="white"/>
<path d="M71.3032 7.89148H67.7891V24.107H71.3032V7.89148Z" fill="white"/>
<path d="M98.3873 7.89148H94.6395L88.6897 20.448L82.74 7.89148H78.9922L86.8158 24.1086H90.5636L98.3873 7.89148Z" fill="white"/>
<path d="M109.647 7.89148H106.133V24.107H109.647V7.89148Z" fill="white"/>
<path d="M129.141 7.89148H125.393L117.336 24.107H121.084L122.091 22.0227C122.512 21.1427 123.168 20.7478 124.152 20.7478H130.243L129.517 19.219C129.071 18.2687 128.346 17.8295 127.269 17.8295H124.154L127.269 11.4357L133.452 24.107H137.2L129.141 7.89148Z" fill="white"/>
<path d="M162.138 7.89148H158.741V19.9384L148.926 7.89148H144.898V24.1086H148.295V12.0617L158.109 24.1086H162.138V7.89148Z" fill="white"/>
<path d="M33.2997 14.7604C31.4126 12.8351 21.2031 2.4202 19.2894 0.91761C18.6217 0.388346 17.7618 0 16.6832 0C15.6029 0 14.743 0.388346 14.077 0.91761C12.1633 2.4202 1.95211 12.8351 0.0649575 14.7604C-0.0891297 14.9357 0.0500458 15.211 0.282005 15.211C1.22475 15.211 3.41014 15.2143 4.72734 15.2143C5.19126 15.2143 5.32878 15.134 5.62038 14.8243C5.91199 14.5146 7.36339 12.9743 7.36339 12.9743C9.20912 11.0064 13.7108 6.66086 15.356 5.291C15.974 4.77649 16.6732 4.79287 16.6832 4.79287C16.6931 4.79287 17.3923 4.77649 18.0103 5.291C19.6556 6.6625 24.1572 11.008 26.003 12.9743C26.003 12.9743 27.4544 14.5146 27.746 14.8243C28.0376 15.134 28.1751 15.2143 28.639 15.2143C29.9546 15.2143 32.1416 15.211 33.0844 15.211C33.3163 15.2127 33.4538 14.9357 33.2997 14.7604Z" fill="white"/>
<path d="M0.0650401 17.2395C1.95219 19.1649 12.1617 29.5797 14.0754 31.0823C14.7431 31.6116 15.603 31.9999 16.6816 31.9999C17.7619 31.9999 18.6218 31.6116 19.2878 31.0823C21.2015 29.5797 31.411 19.1649 33.2982 17.2395C33.4523 17.0642 33.3131 16.7889 33.0811 16.7889C32.1384 16.7889 29.953 16.7856 28.6358 16.7856C28.1719 16.7856 28.0344 16.8659 27.7428 17.1756C27.4511 17.4853 25.9997 19.0256 25.9997 19.0256C24.154 20.9935 19.6523 25.3391 18.0071 26.7089C17.3891 27.2235 16.6899 27.2071 16.68 27.2071C16.67 27.2071 15.9708 27.2235 15.3528 26.7089C13.7076 25.3374 9.20589 20.9919 7.36016 19.0256C7.36016 19.0256 5.90876 17.4853 5.61715 17.1756C5.32555 16.8659 5.18803 16.7856 4.72411 16.7856C3.40857 16.7856 1.22152 16.7889 0.278774 16.7889C0.0501284 16.7889 -0.0890471 17.0642 0.0650401 17.2395Z" fill="white"/>
<path d="M15.4528 19.4435C14.6111 18.6832 13.1282 17.2609 12.5765 16.6235C12.3247 16.3416 12.3412 15.9893 12.3412 15.9893C12.3412 15.9893 12.3247 15.637 12.5765 15.3552C13.1282 14.7178 14.6111 13.2955 15.4528 12.5352C15.7974 12.2173 15.8803 12.0174 15.8803 11.6274C15.8803 10.4214 15.8803 8.16016 15.8803 7.30318C15.8803 7.12949 15.6748 7.02134 15.5158 7.16718C13.6385 8.88606 9.45665 12.9842 8.05495 14.572C7.38392 15.2749 7.44688 15.991 7.44688 15.991C7.44688 15.991 7.38558 16.7054 8.05495 17.41C9.4583 18.9978 13.6402 23.0959 15.5158 24.8148C15.6831 24.959 15.8803 24.8689 15.8803 24.664C15.8803 23.8054 15.8803 21.5589 15.8803 20.3529C15.8803 19.9596 15.7974 19.7597 15.4528 19.4435Z" fill="white"/>
<path d="M17.9197 19.4467C18.7613 18.6864 20.2442 17.2641 20.796 16.6267C21.0478 16.3449 21.0312 15.9926 21.0312 15.9926C21.0312 15.9926 21.0478 15.6403 20.796 15.3585C20.2442 14.721 18.7613 13.2988 17.9197 12.5384C17.575 12.2206 17.4922 12.0207 17.4922 11.6307C17.4922 10.4247 17.4922 8.17816 17.4922 7.31954C17.4922 7.11472 17.6894 7.0246 17.8567 7.16879C19.7339 8.88767 23.9158 12.9858 25.3175 14.5736C25.9869 15.2765 25.9256 15.9926 25.9256 15.9926C25.9256 15.9926 25.9869 16.707 25.3175 17.4116C23.9141 18.9994 19.7323 23.0975 17.8567 24.8164C17.6894 24.9606 17.4922 24.8705 17.4922 24.6656C17.4922 23.807 17.4922 21.5605 17.4922 20.3545C17.4938 19.9629 17.575 19.7646 17.9197 19.4467Z" fill="white"/>
</svg>
